<svg xmlns="http://www.w3.org/2000/svg" xmlns:xlink="http://www.w3.org/1999/xlink" width="200" zoomAndPan="magnify" viewBox="0 0 150 37.5" height="50" preserveAspectRatio="xMidYMid meet" version="1.0"><defs><g/><clipPath id="96ac2c9376"><path d="M 4.6875 3.167969 L 32.074219 3.167969 L 32.074219 33.515625 L 4.6875 33.515625 Z M 4.6875 3.167969 " clip-rule="nonzero"/></clipPath><clipPath id="08266a0ca6"><path d="M 13 3.167969 L 30 3.167969 L 30 6 L 13 6 Z M 13 3.167969 " clip-rule="nonzero"/></clipPath><clipPath id="9e742b8980"><path d="M 4.6875 3.167969 L 32.074219 3.167969 L 32.074219 33.515625 L 4.6875 33.515625 Z M 4.6875 3.167969 " clip-rule="nonzero"/></clipPath></defs><g clip-path="url(#96ac2c9376)"><path fill="#000000" d="M 4.945312 25.121094 C 6.351562 25.378906 7.402344 27.316406 8.144531 28.363281 C 9.105469 29.714844 10.089844 31.105469 11.28125 32.273438 C 11.300781 32.40625 11.398438 32.53125 11.574219 32.535156 C 13.863281 32.597656 16.117188 32.996094 18.394531 33.195312 C 20.789062 33.40625 23.28125 33.351562 25.679688 33.230469 C 25.707031 33.230469 25.734375 33.226562 25.757812 33.21875 C 25.8125 33.246094 25.882812 33.25 25.964844 33.222656 C 27.609375 32.617188 28.820312 31.324219 30.402344 30.609375 C 30.445312 30.585938 30.480469 30.5625 30.503906 30.53125 C 30.597656 30.46875 30.660156 30.363281 30.644531 30.230469 C 31.042969 29.824219 31.421875 29.398438 31.816406 28.992188 C 31.949219 28.953125 32.066406 28.839844 32.066406 28.675781 C 32.078125 28.617188 32.070312 28.554688 32.042969 28.5 C 31.386719 24.222656 31.609375 19.894531 31.617188 15.589844 C 31.617188 15.554688 31.609375 15.527344 31.601562 15.5 C 31.621094 15.335938 31.527344 15.152344 31.3125 15.144531 C 29.332031 15.046875 27.359375 15.230469 25.378906 15.199219 C 23.519531 15.171875 21.695312 14.738281 19.832031 14.746094 C 19.777344 14.722656 19.71875 14.722656 19.652344 14.75 C 19.539062 14.765625 19.460938 14.832031 19.425781 14.921875 C 18.894531 15.339844 18.449219 15.847656 18.078125 16.410156 C 18.015625 16.464844 17.980469 16.542969 17.96875 16.632812 C 17.953125 16.722656 17.941406 16.8125 17.925781 16.902344 C 17.917969 16.976562 17.929688 17.039062 17.957031 17.09375 C 17.855469 18.59375 17.722656 20.097656 17.714844 21.601562 C 17.714844 21.636719 17.71875 21.667969 17.726562 21.695312 C 17.703125 21.859375 17.800781 22.050781 18.015625 22.050781 C 19.929688 22.070312 21.835938 22.3125 23.75 22.300781 C 23.742188 23.425781 23.726562 24.546875 23.714844 25.671875 C 22.796875 25.707031 21.882812 25.742188 20.96875 25.730469 C 19.558594 25.714844 18.199219 25.414062 16.789062 25.574219 C 14.917969 24.511719 14.464844 22.039062 12.503906 21.035156 C 12.789062 18.507812 12.757812 15.964844 12.785156 13.425781 C 13.582031 12.847656 14.398438 12.296875 15.261719 11.8125 C 19.917969 11.8125 24.5 11.769531 29.105469 11.863281 C 29.242188 11.867188 29.332031 11.796875 29.378906 11.703125 C 29.414062 11.679688 29.445312 11.644531 29.464844 11.601562 C 29.90625 11.121094 30.464844 10.753906 30.714844 10.148438 C 30.828125 10.121094 30.917969 10.027344 30.90625 9.875 C 30.742188 7.792969 30.425781 5.742188 29.832031 3.734375 C 29.789062 3.589844 29.675781 3.527344 29.558594 3.523438 C 29.53125 3.507812 29.503906 3.492188 29.464844 3.488281 C 28.4375 3.273438 27.410156 3.351562 26.367188 3.394531 C 25.121094 3.445312 23.871094 3.464844 22.621094 3.464844 L 14.875 3.464844 C 14.769531 3.386719 14.621094 3.375 14.503906 3.503906 C 14.050781 4.003906 13.640625 4.542969 13.183594 5.042969 C 13.164062 5.070312 13.144531 5.09375 13.132812 5.121094 C 13.066406 5.121094 12.996094 5.140625 12.933594 5.191406 C 11.3125 6.46875 9.898438 7.933594 8.472656 9.410156 C 7.324219 10.597656 5.773438 12.015625 5.210938 13.601562 C 4.9375 14.390625 5.03125 15.417969 5.015625 16.261719 C 5 17.261719 5.007812 18.257812 4.945312 19.257812 C 4.839844 21.066406 4.730469 22.875 4.722656 24.683594 C 4.722656 24.71875 4.730469 24.753906 4.738281 24.78125 C 4.699219 24.925781 4.753906 25.085938 4.945312 25.121094 " fill-opacity="1" fill-rule="nonzero"/></g><path fill="#1c61a5" d="M 31.003906 16.1875 C 30.984375 20.308594 30.824219 24.433594 31.4375 28.519531 C 31.128906 28.832031 30.832031 29.15625 30.53125 29.472656 C 29.988281 25.398438 30.191406 21.28125 30.195312 17.179688 C 30.195312 17.148438 30.191406 17.117188 30.183594 17.089844 C 30.183594 17.066406 30.1875 17.042969 30.183594 17.019531 C 30.421875 16.714844 30.734375 16.46875 31.003906 16.1875 " fill-opacity="1" fill-rule="nonzero"/><path fill="#1c61a5" d="M 25.378906 15.796875 C 27.132812 15.855469 28.882812 15.691406 30.632812 15.71875 C 30.328125 16.074219 29.9375 16.355469 29.652344 16.726562 C 27.753906 16.652344 25.855469 16.820312 23.960938 16.792969 C 22.246094 16.765625 20.570312 16.394531 18.863281 16.339844 C 19.144531 15.96875 19.46875 15.625 19.84375 15.34375 C 21.699219 15.335938 23.523438 15.734375 25.378906 15.796875 " fill-opacity="1" fill-rule="nonzero"/><g clip-path="url(#08266a0ca6)"><path fill="#1c61a5" d="M 29.085938 4.039062 C 28.847656 4.445312 28.441406 4.746094 28.132812 5.113281 C 28.109375 5.097656 28.078125 5.085938 28.042969 5.078125 C 27.019531 4.863281 25.988281 4.941406 24.945312 4.984375 C 23.699219 5.035156 22.449219 5.054688 21.199219 5.054688 C 18.773438 5.054688 16.410156 5.054688 13.972656 5.054688 C 14.253906 4.722656 14.527344 4.386719 14.816406 4.058594 C 14.816406 4.058594 14.820312 4.058594 14.820312 4.058594 C 14.820312 4.058594 19.742188 4.058594 22.230469 4.058594 C 23.386719 4.058594 24.542969 4.019531 25.699219 4.007812 C 26.835938 3.992188 27.964844 3.851562 29.085938 4.039062 " fill-opacity="1" fill-rule="nonzero"/></g><path fill="#1c61a5" d="M 23.707031 26.277344 C 23.703125 26.589844 23.703125 26.90625 23.699219 27.222656 C 22.316406 27.246094 20.933594 27.339844 19.546875 27.324219 C 18.40625 27.308594 17.308594 27.109375 16.183594 27.121094 C 16.570312 26.859375 16.914062 26.546875 17.21875 26.1875 C 17.238281 26.167969 17.25 26.144531 17.261719 26.125 C 18.621094 26.03125 19.976562 26.316406 21.339844 26.335938 C 22.128906 26.34375 22.917969 26.308594 23.707031 26.277344 " fill-opacity="1" fill-rule="nonzero"/><path fill="#1c61a5" d="M 16.484375 26.09375 C 16.117188 26.464844 15.691406 26.785156 15.195312 26.980469 C 15.171875 26.992188 15.148438 27.003906 15.128906 27.019531 C 13.511719 25.929688 12.992188 23.746094 11.269531 22.730469 C 11.558594 22.3125 11.894531 21.9375 12.265625 21.589844 C 14.148438 22.609375 14.613281 25.035156 16.484375 26.09375 " fill-opacity="1" fill-rule="nonzero"/><path fill="#1c61a5" d="M 11.367188 14.472656 C 11.636719 14.273438 11.902344 14.074219 12.171875 13.875 C 12.152344 16.292969 12.164062 18.710938 11.886719 21.117188 C 11.628906 21.355469 11.386719 21.613281 11.160156 21.878906 C 11.378906 19.414062 11.332031 16.941406 11.367188 14.472656 " fill-opacity="1" fill-rule="nonzero"/><path fill="#1c61a5" d="M 30.277344 9.617188 C 30.246094 9.648438 30.21875 9.691406 30.207031 9.746094 C 30.097656 10.195312 29.761719 10.503906 29.425781 10.804688 C 29.261719 9.054688 28.972656 7.328125 28.496094 5.632812 C 28.757812 5.222656 29.128906 4.925781 29.429688 4.558594 C 29.867188 6.21875 30.128906 7.90625 30.277344 9.617188 " fill-opacity="1" fill-rule="nonzero"/><path fill="#50a7ef" d="M 6.664062 19.046875 C 6.683594 16.558594 6.589844 14.546875 6.5 14.546875 C 6.402344 14.546875 6.339844 16.5625 6.324219 19.042969 C 6.289062 21.523438 6.191406 23.53125 6.296875 23.542969 C 6.34375 23.542969 6.417969 23.042969 6.5 22.234375 C 6.597656 21.421875 6.632812 20.292969 6.664062 19.046875 Z M 11.675781 30.546875 C 11.699219 30.539062 11.671875 30.433594 11.613281 30.253906 C 11.585938 30.164062 11.546875 30.054688 11.5 29.929688 C 11.453125 29.804688 11.398438 29.660156 11.3125 29.511719 C 11.019531 28.886719 10.515625 28.085938 9.894531 27.25 C 9.265625 26.425781 8.660156 25.707031 8.222656 25.1875 C 7.785156 24.671875 7.503906 24.359375 7.464844 24.386719 C 7.425781 24.410156 7.640625 24.777344 8.03125 25.332031 C 8.421875 25.890625 8.992188 26.628906 9.621094 27.449219 C 10.230469 28.273438 10.757812 29.042969 11.097656 29.613281 C 11.191406 29.75 11.257812 29.886719 11.320312 30.007812 C 11.386719 30.125 11.445312 30.226562 11.492188 30.308594 C 11.589844 30.472656 11.652344 30.558594 11.675781 30.546875 Z M 11.714844 8.792969 C 12.082031 8.261719 12.269531 7.910156 12.234375 7.886719 C 12.191406 7.859375 11.933594 8.160156 11.523438 8.648438 C 11.109375 9.128906 10.519531 9.78125 9.839844 10.480469 C 9.15625 11.171875 8.527344 11.792969 8.082031 12.257812 C 7.636719 12.71875 7.378906 13.023438 7.414062 13.054688 C 7.445312 13.089844 7.765625 12.847656 8.25 12.429688 C 8.738281 12.007812 9.398438 11.410156 10.085938 10.710938 C 10.773438 10.007812 11.34375 9.316406 11.714844 8.792969 Z M 24.359375 31.988281 C 24.359375 31.941406 23.769531 31.902344 22.8125 31.871094 C 21.855469 31.835938 20.535156 31.808594 19.082031 31.730469 C 17.632812 31.636719 16.324219 31.484375 15.390625 31.328125 C 15.15625 31.304688 14.941406 31.253906 14.757812 31.21875 C 14.570312 31.179688 14.410156 31.152344 14.277344 31.132812 C 14.011719 31.085938 13.863281 31.074219 13.855469 31.09375 C 13.851562 31.117188 13.988281 31.175781 14.246094 31.257812 C 14.371094 31.296875 14.527344 31.347656 14.710938 31.398438 C 14.894531 31.449219 15.097656 31.519531 15.335938 31.5625 C 16.277344 31.78125 17.597656 31.972656 19.0625 32.0625 C 20.527344 32.144531 21.855469 32.136719 22.8125 32.105469 C 23.769531 32.078125 24.359375 32.035156 24.359375 31.988281 Z M 27.203125 10.371094 C 27.203125 10.277344 24.535156 10.191406 21.238281 10.179688 C 17.945312 10.164062 15.277344 10.230469 15.277344 10.324219 C 15.277344 10.414062 17.945312 10.5 21.238281 10.515625 C 24.53125 10.527344 27.199219 10.464844 27.203125 10.371094 Z M 28.621094 27.636719 C 28.652344 26.882812 28.597656 25.835938 28.535156 24.683594 C 28.417969 23.535156 28.3125 22.496094 28.15625 21.753906 C 28.015625 21.007812 27.910156 20.550781 27.863281 20.558594 C 27.753906 20.578125 28 22.425781 28.191406 24.707031 C 28.355469 26.988281 28.414062 28.859375 28.519531 28.859375 C 28.566406 28.859375 28.601562 28.390625 28.621094 27.636719 Z M 30.007812 30.054688 C 30 30.082031 29.996094 30.109375 29.996094 30.140625 C 28.511719 30.84375 27.355469 32.074219 25.800781 32.644531 C 25.800781 32.648438 25.796875 32.648438 25.792969 32.652344 C 25.757812 32.640625 25.722656 32.632812 25.679688 32.636719 C 23.394531 32.75 21.058594 32.769531 18.773438 32.628906 C 16.441406 32.484375 14.144531 32.039062 11.808594 31.949219 C 11.800781 31.945312 11.796875 31.9375 11.789062 31.929688 C 10.351562 30.542969 9.246094 28.839844 8.082031 27.238281 C 7.40625 26.3125 6.527344 24.957031 5.335938 24.601562 C 5.355469 20.996094 5.769531 17.410156 5.789062 13.808594 C 6.597656 12.207031 7.878906 10.894531 9.125 9.601562 C 10.464844 8.214844 11.804688 6.847656 13.324219 5.644531 C 13.351562 5.648438 13.375 5.652344 13.402344 5.652344 C 13.402344 5.652344 18.324219 5.652344 20.808594 5.652344 C 21.964844 5.652344 23.121094 5.609375 24.277344 5.597656 C 25.484375 5.582031 26.679688 5.417969 27.871094 5.664062 C 28.402344 7.496094 28.699219 9.363281 28.859375 11.261719 C 24.332031 11.171875 19.804688 11.214844 15.226562 11.21875 C 15.222656 11.21875 15.21875 11.21875 15.214844 11.21875 C 15.152344 11.210938 15.089844 11.222656 15.023438 11.257812 C 13.996094 11.828125 13.125 12.578125 12.132812 13.164062 C 11.738281 13.394531 11.378906 13.71875 11.011719 13.988281 C 10.976562 14.019531 10.945312 14.054688 10.925781 14.09375 C 10.832031 14.136719 10.765625 14.21875 10.761719 14.347656 C 10.71875 17.167969 10.789062 19.988281 10.457031 22.796875 C 10.4375 22.957031 10.539062 23.050781 10.660156 23.074219 C 10.675781 23.082031 10.691406 23.09375 10.707031 23.105469 C 12.765625 24.105469 13.164062 26.75 15.226562 27.777344 C 15.355469 27.839844 15.476562 27.808594 15.5625 27.738281 C 17.015625 27.578125 18.460938 27.90625 19.917969 27.925781 C 21.28125 27.941406 22.644531 27.824219 24.007812 27.816406 C 24.238281 27.8125 24.332031 27.601562 24.289062 27.433594 C 24.300781 27.398438 24.308594 27.359375 24.308594 27.320312 C 24.3125 25.53125 24.355469 23.738281 24.359375 21.953125 C 24.359375 21.6875 24.074219 21.605469 23.894531 21.703125 C 22.03125 21.730469 20.183594 21.503906 18.324219 21.460938 C 18.34375 19.949219 18.476562 18.441406 18.574219 16.9375 C 20.378906 16.949219 22.15625 17.324219 23.960938 17.386719 C 25.835938 17.449219 27.710938 17.257812 29.585938 17.320312 C 29.574219 21.574219 29.382812 25.835938 30.007812 30.054688 " fill-opacity="1" fill-rule="nonzero"/><g clip-path="url(#9e742b8980)"><path fill="#000000" d="M 12.171875 13.875 C 11.902344 14.074219 11.636719 14.273438 11.367188 14.472656 C 11.332031 16.941406 11.378906 19.414062 11.160156 21.878906 C 11.386719 21.613281 11.628906 21.355469 11.886719 21.117188 C 12.164062 18.710938 12.152344 16.292969 12.171875 13.875 Z M 15.195312 26.980469 C 15.691406 26.785156 16.117188 26.464844 16.484375 26.09375 C 14.613281 25.035156 14.148438 22.609375 12.265625 21.589844 C 11.894531 21.9375 11.558594 22.3125 11.269531 22.730469 C 12.992188 23.746094 13.511719 25.929688 15.128906 27.019531 C 15.148438 27.003906 15.171875 26.992188 15.195312 26.980469 Z M 23.699219 27.222656 C 23.703125 26.90625 23.703125 26.589844 23.707031 26.277344 C 22.917969 26.308594 22.128906 26.34375 21.339844 26.335938 C 19.976562 26.316406 18.621094 26.03125 17.261719 26.125 C 17.25 26.144531 17.238281 26.167969 17.21875 26.1875 C 16.914062 26.546875 16.570312 26.859375 16.183594 27.121094 C 17.308594 27.109375 18.40625 27.308594 19.546875 27.324219 C 20.933594 27.339844 22.316406 27.246094 23.699219 27.222656 Z M 28.132812 5.113281 C 28.441406 4.746094 28.847656 4.445312 29.085938 4.039062 C 27.964844 3.851562 26.835938 3.992188 25.699219 4.007812 C 24.542969 4.019531 23.386719 4.058594 22.230469 4.058594 C 19.742188 4.058594 14.820312 4.058594 14.820312 4.058594 C 14.820312 4.058594 14.816406 4.058594 14.816406 4.058594 C 14.527344 4.386719 14.253906 4.722656 13.972656 5.054688 C 16.410156 5.054688 18.773438 5.054688 21.199219 5.054688 C 22.449219 5.054688 23.699219 5.035156 24.945312 4.984375 C 25.988281 4.941406 27.019531 4.863281 28.042969 5.078125 C 28.078125 5.085938 28.109375 5.097656 28.132812 5.113281 Z M 29.996094 30.140625 C 29.996094 30.109375 30 30.082031 30.007812 30.054688 C 29.382812 25.835938 29.574219 21.574219 29.585938 17.320312 C 27.710938 17.257812 25.835938 17.449219 23.960938 17.386719 C 22.15625 17.324219 20.378906 16.949219 18.574219 16.9375 C 18.476562 18.441406 18.34375 19.949219 18.324219 21.460938 C 20.183594 21.503906 22.03125 21.730469 23.894531 21.703125 C 24.074219 21.605469 24.359375 21.6875 24.359375 21.953125 C 24.355469 23.738281 24.3125 25.53125 24.308594 27.320312 C 24.308594 27.359375 24.300781 27.398438 24.289062 27.433594 C 24.332031 27.601562 24.238281 27.8125 24.007812 27.816406 C 22.644531 27.824219 21.28125 27.941406 19.917969 27.925781 C 18.460938 27.90625 17.015625 27.578125 15.5625 27.738281 C 15.476562 27.808594 15.355469 27.839844 15.226562 27.777344 C 13.164062 26.75 12.765625 24.105469 10.707031 23.105469 C 10.691406 23.09375 10.675781 23.082031 10.660156 23.074219 C 10.539062 23.050781 10.4375 22.957031 10.457031 22.796875 C 10.789062 19.988281 10.71875 17.167969 10.761719 14.347656 C 10.765625 14.21875 10.832031 14.136719 10.925781 14.09375 C 10.945312 14.054688 10.976562 14.019531 11.011719 13.988281 C 11.378906 13.71875 11.738281 13.394531 12.132812 13.164062 C 13.125 12.578125 13.996094 11.828125 15.023438 11.257812 C 15.089844 11.222656 15.152344 11.210938 15.214844 11.21875 C 15.21875 11.21875 15.222656 11.21875 15.226562 11.21875 C 19.804688 11.214844 24.332031 11.171875 28.859375 11.261719 C 28.699219 9.363281 28.402344 7.496094 27.871094 5.664062 C 26.679688 5.417969 25.484375 5.582031 24.277344 5.597656 C 23.121094 5.609375 21.964844 5.652344 20.808594 5.652344 C 18.324219 5.652344 13.402344 5.652344 13.402344 5.652344 C 13.375 5.652344 13.351562 5.648438 13.324219 5.644531 C 11.804688 6.847656 10.464844 8.214844 9.125 9.601562 C 7.878906 10.894531 6.597656 12.207031 5.789062 13.808594 C 5.769531 17.410156 5.355469 20.996094 5.335938 24.601562 C 6.527344 24.957031 7.40625 26.3125 8.082031 27.238281 C 9.246094 28.839844 10.351562 30.542969 11.789062 31.929688 C 11.796875 31.9375 11.800781 31.945312 11.808594 31.949219 C 14.144531 32.039062 16.441406 32.484375 18.773438 32.628906 C 21.058594 32.769531 23.394531 32.75 25.679688 32.636719 C 25.722656 32.632812 25.757812 32.640625 25.792969 32.652344 C 25.796875 32.648438 25.800781 32.648438 25.800781 32.644531 C 27.355469 32.074219 28.511719 30.84375 29.996094 30.140625 Z M 30.207031 9.746094 C 30.21875 9.691406 30.246094 9.648438 30.277344 9.617188 C 30.128906 7.90625 29.867188 6.21875 29.429688 4.558594 C 29.128906 4.925781 28.757812 5.222656 28.496094 5.632812 C 28.972656 7.328125 29.261719 9.054688 29.425781 10.804688 C 29.761719 10.503906 30.097656 10.195312 30.207031 9.746094 Z M 30.632812 15.71875 C 28.882812 15.691406 27.132812 15.855469 25.378906 15.796875 C 23.523438 15.734375 21.699219 15.335938 19.84375 15.34375 C 19.46875 15.625 19.144531 15.96875 18.863281 16.339844 C 20.570312 16.394531 22.246094 16.765625 23.960938 16.792969 C 25.855469 16.820312 27.753906 16.652344 29.652344 16.726562 C 29.9375 16.355469 30.328125 16.074219 30.632812 15.71875 Z M 31.4375 28.519531 C 30.824219 24.433594 30.984375 20.308594 31.003906 16.1875 C 30.734375 16.46875 30.421875 16.714844 30.183594 17.019531 C 30.1875 17.042969 30.183594 17.066406 30.183594 17.089844 C 30.191406 17.117188 30.195312 17.148438 30.195312 17.179688 C 30.191406 21.28125 29.988281 25.398438 30.53125 29.472656 C 30.832031 29.15625 31.128906 28.832031 31.4375 28.519531 Z M 32.042969 28.5 C 32.070312 28.554688 32.078125 28.617188 32.066406 28.675781 C 32.066406 28.839844 31.949219 28.953125 31.816406 28.992188 C 31.421875 29.398438 31.042969 29.824219 30.644531 30.230469 C 30.660156 30.363281 30.597656 30.46875 30.503906 30.53125 C 30.480469 30.5625 30.445312 30.585938 30.402344 30.609375 C 28.820312 31.324219 27.609375 32.617188 25.964844 33.222656 C 25.882812 33.25 25.8125 33.246094 25.757812 33.21875 C 25.734375 33.226562 25.707031 33.230469 25.679688 33.230469 C 23.28125 33.351562 20.789062 33.40625 18.394531 33.195312 C 16.117188 32.996094 13.863281 32.597656 11.574219 32.535156 C 11.398438 32.53125 11.300781 32.40625 11.28125 32.273438 C 10.089844 31.105469 9.105469 29.714844 8.144531 28.363281 C 7.402344 27.316406 6.351562 25.378906 4.945312 25.121094 C 4.753906 25.085938 4.699219 24.925781 4.738281 24.78125 C 4.730469 24.753906 4.722656 24.71875 4.722656 24.683594 C 4.730469 22.875 4.839844 21.066406 4.945312 19.257812 C 5.007812 18.257812 5 17.261719 5.015625 16.261719 C 5.03125 15.417969 4.9375 14.390625 5.210938 13.601562 C 5.773438 12.015625 7.324219 10.597656 8.472656 9.410156 C 9.898438 7.933594 11.3125 6.46875 12.933594 5.191406 C 12.996094 5.140625 13.066406 5.121094 13.132812 5.121094 C 13.144531 5.09375 13.164062 5.070312 13.183594 5.042969 C 13.640625 4.542969 14.050781 4.003906 14.503906 3.503906 C 14.621094 3.375 14.769531 3.386719 14.875 3.464844 C 17.492188 3.464844 20.023438 3.464844 22.621094 3.464844 C 23.871094 3.464844 25.121094 3.445312 26.367188 3.394531 C 27.410156 3.351562 28.4375 3.273438 29.464844 3.488281 C 29.503906 3.492188 29.53125 3.507812 29.558594 3.523438 C 29.675781 3.527344 29.789062 3.589844 29.832031 3.734375 C 30.425781 5.742188 30.742188 7.792969 30.90625 9.875 C 30.917969 10.027344 30.828125 10.121094 30.714844 10.148438 C 30.464844 10.753906 29.90625 11.121094 29.464844 11.601562 C 29.445312 11.644531 29.414062 11.679688 29.378906 11.703125 C 29.332031 11.796875 29.242188 11.867188 29.105469 11.863281 C 24.5 11.769531 19.917969 11.8125 15.261719 11.8125 C 14.398438 12.296875 13.582031 12.847656 12.785156 13.425781 C 12.757812 15.964844 12.789062 18.507812 12.503906 21.035156 C 14.464844 22.039062 14.917969 24.511719 16.789062 25.574219 C 18.199219 25.414062 19.558594 25.714844 20.96875 25.730469 C 21.882812 25.742188 22.796875 25.707031 23.714844 25.671875 C 23.726562 24.546875 23.742188 23.425781 23.75 22.300781 C 21.835938 22.3125 19.929688 22.070312 18.015625 22.050781 C 17.800781 22.050781 17.703125 21.859375 17.726562 21.695312 C 17.71875 21.667969 17.714844 21.636719 17.714844 21.605469 C 17.722656 20.097656 17.855469 18.59375 17.957031 17.09375 C 17.929688 17.039062 17.917969 16.976562 17.925781 16.902344 C 17.941406 16.8125 17.953125 16.722656 17.96875 16.632812 C 17.980469 16.542969 18.015625 16.464844 18.078125 16.410156 C 18.449219 15.847656 18.894531 15.339844 19.425781 14.921875 C 19.460938 14.832031 19.539062 14.765625 19.652344 14.75 C 19.71875 14.722656 19.777344 14.722656 19.832031 14.746094 C 21.695312 14.738281 23.519531 15.171875 25.378906 15.199219 C 27.359375 15.230469 29.332031 15.046875 31.3125 15.144531 C 31.527344 15.152344 31.621094 15.335938 31.601562 15.5 C 31.609375 15.527344 31.617188 15.554688 31.617188 15.589844 C 31.609375 19.894531 31.386719 24.222656 32.042969 28.5 " fill-opacity="1" fill-rule="nonzero"/></g><path fill="#000000" d="M 28.535156 24.683594 C 28.597656 25.835938 28.652344 26.882812 28.621094 27.636719 C 28.601562 28.390625 28.566406 28.859375 28.519531 28.859375 C 28.414062 28.859375 28.355469 26.988281 28.191406 24.707031 C 28 22.425781 27.753906 20.578125 27.863281 20.558594 C 27.910156 20.550781 28.015625 21.007812 28.15625 21.753906 C 28.3125 22.496094 28.417969 23.535156 28.535156 24.683594 " fill-opacity="1" fill-rule="nonzero"/><path fill="#000000" d="M 21.238281 10.179688 C 24.535156 10.191406 27.203125 10.277344 27.203125 10.371094 C 27.199219 10.464844 24.53125 10.527344 21.238281 10.515625 C 17.945312 10.5 15.277344 10.414062 15.277344 10.324219 C 15.277344 10.230469 17.945312 10.164062 21.238281 10.179688 " fill-opacity="1" fill-rule="nonzero"/><path fill="#000000" d="M 22.8125 31.871094 C 23.769531 31.902344 24.359375 31.941406 24.359375 31.988281 C 24.359375 32.035156 23.769531 32.078125 22.8125 32.105469 C 21.855469 32.136719 20.527344 32.144531 19.0625 32.0625 C 17.597656 31.972656 16.277344 31.78125 15.335938 31.5625 C 15.097656 31.519531 14.894531 31.449219 14.710938 31.398438 C 14.527344 31.347656 14.371094 31.296875 14.246094 31.257812 C 13.988281 31.175781 13.851562 31.117188 13.855469 31.09375 C 13.863281 31.074219 14.011719 31.085938 14.277344 31.132812 C 14.410156 31.152344 14.570312 31.179688 14.757812 31.21875 C 14.941406 31.253906 15.15625 31.304688 15.390625 31.328125 C 16.324219 31.484375 17.632812 31.636719 19.082031 31.730469 C 20.535156 31.808594 21.855469 31.835938 22.8125 31.871094 " fill-opacity="1" fill-rule="nonzero"/><path fill="#000000" d="M 12.234375 7.886719 C 12.269531 7.910156 12.082031 8.261719 11.714844 8.792969 C 11.34375 9.316406 10.773438 10.007812 10.085938 10.710938 C 9.398438 11.410156 8.738281 12.007812 8.25 12.429688 C 7.765625 12.847656 7.445312 13.089844 7.414062 13.054688 C 7.378906 13.023438 7.636719 12.71875 8.082031 12.257812 C 8.527344 11.792969 9.15625 11.171875 9.839844 10.480469 C 10.519531 9.78125 11.109375 9.128906 11.523438 8.648438 C 11.933594 8.160156 12.191406 7.859375 12.234375 7.886719 " fill-opacity="1" fill-rule="nonzero"/><path fill="#000000" d="M 11.613281 30.253906 C 11.671875 30.433594 11.699219 30.539062 11.675781 30.546875 C 11.652344 30.558594 11.589844 30.472656 11.492188 30.308594 C 11.445312 30.226562 11.386719 30.125 11.320312 30.007812 C 11.257812 29.886719 11.191406 29.75 11.097656 29.613281 C 10.757812 29.042969 10.230469 28.273438 9.621094 27.449219 C 8.992188 26.628906 8.421875 25.890625 8.03125 25.332031 C 7.640625 24.777344 7.425781 24.410156 7.464844 24.386719 C 7.503906 24.359375 7.785156 24.671875 8.222656 25.1875 C 8.660156 25.707031 9.265625 26.425781 9.894531 27.25 C 10.515625 28.085938 11.019531 28.886719 11.3125 29.511719 C 11.398438 29.660156 11.453125 29.804688 11.5 29.929688 C 11.546875 30.054688 11.585938 30.164062 11.613281 30.253906 " fill-opacity="1" fill-rule="nonzero"/><path fill="#000000" d="M 6.5 14.546875 C 6.589844 14.546875 6.683594 16.558594 6.664062 19.046875 C 6.632812 20.292969 6.597656 21.421875 6.5 22.234375 C 6.417969 23.042969 6.34375 23.542969 6.296875 23.542969 C 6.191406 23.53125 6.289062 21.523438 6.324219 19.042969 C 6.339844 16.5625 6.402344 14.546875 6.5 14.546875 " fill-opacity="1" fill-rule="nonzero"/><g fill="#0057ff" fill-opacity="0.302"><g transform="translate(34.041659, 31.850492)"><g><path d="M 5.1875 -0.90625 C 5.113281 -0.75 5.007812 -0.613281 4.875 -0.5 C 4.570312 -0.164062 4.195312 0 3.75 0 L 2.328125 0 C 1.878906 0 1.5 -0.164062 1.1875 -0.5 C 0.875 -0.832031 0.71875 -1.234375 0.71875 -1.703125 L 0.71875 -12.421875 L 2.6875 -12.421875 L 2.6875 -1.875 L 4.203125 -1.875 L 4.203125 -12.421875 L 6.171875 -12.421875 L 6.171875 -1.875 L 7.6875 -1.875 L 7.6875 -12.421875 L 9.65625 -12.421875 L 9.65625 -1.703125 C 9.65625 -1.222656 9.492188 -0.816406 9.171875 -0.484375 C 8.859375 -0.160156 8.484375 0 8.046875 0 L 6.609375 0 C 6.171875 0 5.789062 -0.164062 5.46875 -0.5 C 5.351562 -0.632812 5.257812 -0.769531 5.1875 -0.90625 Z M 5.1875 -0.90625 "/></g></g></g><g fill="#0057ff" fill-opacity="0.302"><g transform="translate(44.411375, 31.850492)"><g><path d="M 5.453125 -10.546875 L 2.6875 -10.546875 L 2.6875 -7.203125 L 5.453125 -8.640625 L 5.453125 -6.4375 L 2.6875 -5 L 2.6875 -1.875 L 5.453125 -1.875 L 5.453125 0 L 0.71875 0 L 0.71875 -10.71875 C 0.71875 -11.195312 0.875 -11.597656 1.1875 -11.921875 C 1.5 -12.253906 1.878906 -12.421875 2.328125 -12.421875 L 5.453125 -12.421875 Z M 5.453125 -10.546875 "/></g></g></g><g fill="#0057ff" fill-opacity="0.302"><g transform="translate(50.400779, 31.850492)"><g><path d="M 0.71875 0 L 0.71875 -12.421875 L 2.6875 -12.421875 L 2.6875 0 Z M 0.71875 0 "/></g></g></g><g fill="#0057ff" fill-opacity="0.302"><g transform="translate(53.797754, 31.850492)"><g><path d="M 0.71875 -10.71875 C 0.71875 -11.207031 0.875 -11.613281 1.1875 -11.9375 C 1.5 -12.257812 1.878906 -12.421875 2.328125 -12.421875 L 4.5625 -12.421875 C 5 -12.421875 5.375 -12.253906 5.6875 -11.921875 C 6.007812 -11.597656 6.171875 -11.195312 6.171875 -10.71875 L 6.171875 -10.1875 L 4.203125 -9.203125 L 4.203125 -10.546875 L 2.6875 -10.546875 L 2.6875 -7.234375 L 6.171875 -9.03125 L 6.171875 -1.703125 C 6.171875 -1.234375 6.007812 -0.832031 5.6875 -0.5 C 5.375 -0.164062 5 0 4.5625 0 L 2.328125 0 C 1.878906 0 1.5 -0.160156 1.1875 -0.484375 C 0.875 -0.816406 0.71875 -1.222656 0.71875 -1.703125 L 0.71875 -2.859375 L 2.6875 -3.84375 L 2.6875 -1.875 L 4.203125 -1.875 L 4.203125 -5.8125 L 0.71875 -4.015625 Z M 0.71875 -10.71875 "/></g></g></g><g fill="#0057ff" fill-opacity="0.302"><g transform="translate(60.681098, 31.850492)"><g><path d="M 0.71875 0 L 0.71875 -12.421875 L 4.5625 -12.421875 C 5 -12.421875 5.375 -12.253906 5.6875 -11.921875 C 6.007812 -11.597656 6.171875 -11.195312 6.171875 -10.71875 L 6.171875 -8.046875 C 6.171875 -7.648438 6.097656 -7.316406 5.953125 -7.046875 C 5.859375 -6.835938 5.707031 -6.664062 5.5 -6.53125 L 6.171875 -6.53125 L 6.171875 -1.703125 C 6.171875 -1.222656 6.007812 -0.816406 5.6875 -0.484375 C 5.375 -0.160156 5 0 4.5625 0 Z M 4.203125 -8.046875 L 4.203125 -10.546875 L 2.6875 -10.546875 L 2.6875 -7.234375 Z M 4.203125 -5.828125 L 2.6875 -5.046875 L 2.6875 -1.875 L 4.203125 -1.875 Z M 4.203125 -5.828125 "/></g></g></g><g fill="#0057ff" fill-opacity="0.302"><g transform="translate(67.564442, 31.850492)"><g><path d="M 5.453125 -10.546875 L 2.6875 -10.546875 L 2.6875 -7.203125 L 5.453125 -8.640625 L 5.453125 -6.4375 L 2.6875 -5 L 2.6875 -1.875 L 5.453125 -1.875 L 5.453125 0 L 0.71875 0 L 0.71875 -10.71875 C 0.71875 -11.195312 0.875 -11.597656 1.1875 -11.921875 C 1.5 -12.253906 1.878906 -12.421875 2.328125 -12.421875 L 5.453125 -12.421875 Z M 5.453125 -10.546875 "/></g></g></g><g fill="#0057ff" fill-opacity="0.302"><g transform="translate(73.553846, 31.850492)"><g><path d="M 4.203125 -3.390625 L 6.171875 -4.375 L 6.171875 -1.703125 C 6.171875 -1.222656 6.007812 -0.816406 5.6875 -0.484375 C 5.375 -0.160156 5 0 4.5625 0 L 2.328125 0 C 1.878906 0 1.5 -0.164062 1.1875 -0.5 C 0.875 -0.832031 0.71875 -1.234375 0.71875 -1.703125 L 0.71875 -10.71875 C 0.71875 -11.195312 0.875 -11.597656 1.1875 -11.921875 C 1.5 -12.253906 1.878906 -12.421875 2.328125 -12.421875 L 4.5625 -12.421875 C 5 -12.421875 5.375 -12.253906 5.6875 -11.921875 C 6.007812 -11.597656 6.171875 -11.195312 6.171875 -10.71875 L 6.171875 -9.65625 L 4.203125 -8.671875 L 4.203125 -10.546875 L 2.6875 -10.546875 L 2.6875 -1.875 L 4.203125 -1.875 Z M 4.203125 -3.390625 "/></g></g></g><g fill="#0057ff" fill-opacity="0.302"><g transform="translate(80.258403, 31.850492)"><g><path d="M 7.59375 0 L 5.5 0 L 3.515625 -5.078125 L 2.6875 -3.34375 L 2.6875 0 L 0.71875 0 L 0.71875 -12.421875 L 2.6875 -12.421875 L 2.6875 -7.71875 L 4.796875 -12.421875 L 6.9375 -12.421875 L 4.59375 -7.375 Z M 7.59375 0 "/></g></g></g><g fill="#0057ff" fill-opacity="0.302"><g transform="translate(87.499325, 31.850492)"><g><path d="M 6.171875 0 L 4.203125 0 L 4.203125 -4.46875 L 0.71875 -2.6875 L 0.71875 -12.421875 L 2.6875 -12.421875 L 2.6875 -5.859375 L 4.203125 -6.65625 L 4.203125 -9.03125 L 6.171875 -10.015625 Z M 6.171875 0 "/></g></g></g><g fill="#0057ff" fill-opacity="0.502"><g transform="translate(33.452579, 31.406589)"><g><path d="M 5.1875 -0.90625 C 5.113281 -0.75 5.007812 -0.613281 4.875 -0.5 C 4.570312 -0.164062 4.195312 0 3.75 0 L 2.328125 0 C 1.878906 0 1.5 -0.164062 1.1875 -0.5 C 0.875 -0.832031 0.71875 -1.234375 0.71875 -1.703125 L 0.71875 -12.421875 L 2.6875 -12.421875 L 2.6875 -1.875 L 4.203125 -1.875 L 4.203125 -12.421875 L 6.171875 -12.421875 L 6.171875 -1.875 L 7.6875 -1.875 L 7.6875 -12.421875 L 9.65625 -12.421875 L 9.65625 -1.703125 C 9.65625 -1.222656 9.492188 -0.816406 9.171875 -0.484375 C 8.859375 -0.160156 8.484375 0 8.046875 0 L 6.609375 0 C 6.171875 0 5.789062 -0.164062 5.46875 -0.5 C 5.351562 -0.632812 5.257812 -0.769531 5.1875 -0.90625 Z M 5.1875 -0.90625 "/></g></g></g><g fill="#0057ff" fill-opacity="0.502"><g transform="translate(43.822295, 31.406589)"><g><path d="M 5.453125 -10.546875 L 2.6875 -10.546875 L 2.6875 -7.203125 L 5.453125 -8.640625 L 5.453125 -6.4375 L 2.6875 -5 L 2.6875 -1.875 L 5.453125 -1.875 L 5.453125 0 L 0.71875 0 L 0.71875 -10.71875 C 0.71875 -11.195312 0.875 -11.597656 1.1875 -11.921875 C 1.5 -12.253906 1.878906 -12.421875 2.328125 -12.421875 L 5.453125 -12.421875 Z M 5.453125 -10.546875 "/></g></g></g><g fill="#0057ff" fill-opacity="0.502"><g transform="translate(49.811698, 31.406589)"><g><path d="M 0.71875 0 L 0.71875 -12.421875 L 2.6875 -12.421875 L 2.6875 0 Z M 0.71875 0 "/></g></g></g><g fill="#0057ff" fill-opacity="0.502"><g transform="translate(53.208674, 31.406589)"><g><path d="M 0.71875 -10.71875 C 0.71875 -11.207031 0.875 -11.613281 1.1875 -11.9375 C 1.5 -12.257812 1.878906 -12.421875 2.328125 -12.421875 L 4.5625 -12.421875 C 5 -12.421875 5.375 -12.253906 5.6875 -11.921875 C 6.007812 -11.597656 6.171875 -11.195312 6.171875 -10.71875 L 6.171875 -10.1875 L 4.203125 -9.203125 L 4.203125 -10.546875 L 2.6875 -10.546875 L 2.6875 -7.234375 L 6.171875 -9.03125 L 6.171875 -1.703125 C 6.171875 -1.234375 6.007812 -0.832031 5.6875 -0.5 C 5.375 -0.164062 5 0 4.5625 0 L 2.328125 0 C 1.878906 0 1.5 -0.160156 1.1875 -0.484375 C 0.875 -0.816406 0.71875 -1.222656 0.71875 -1.703125 L 0.71875 -2.859375 L 2.6875 -3.84375 L 2.6875 -1.875 L 4.203125 -1.875 L 4.203125 -5.8125 L 0.71875 -4.015625 Z M 0.71875 -10.71875 "/></g></g></g><g fill="#0057ff" fill-opacity="0.502"><g transform="translate(60.092018, 31.406589)"><g><path d="M 0.71875 0 L 0.71875 -12.421875 L 4.5625 -12.421875 C 5 -12.421875 5.375 -12.253906 5.6875 -11.921875 C 6.007812 -11.597656 6.171875 -11.195312 6.171875 -10.71875 L 6.171875 -8.046875 C 6.171875 -7.648438 6.097656 -7.316406 5.953125 -7.046875 C 5.859375 -6.835938 5.707031 -6.664062 5.5 -6.53125 L 6.171875 -6.53125 L 6.171875 -1.703125 C 6.171875 -1.222656 6.007812 -0.816406 5.6875 -0.484375 C 5.375 -0.160156 5 0 4.5625 0 Z M 4.203125 -8.046875 L 4.203125 -10.546875 L 2.6875 -10.546875 L 2.6875 -7.234375 Z M 4.203125 -5.828125 L 2.6875 -5.046875 L 2.6875 -1.875 L 4.203125 -1.875 Z M 4.203125 -5.828125 "/></g></g></g><g fill="#0057ff" fill-opacity="0.502"><g transform="translate(66.975362, 31.406589)"><g><path d="M 5.453125 -10.546875 L 2.6875 -10.546875 L 2.6875 -7.203125 L 5.453125 -8.640625 L 5.453125 -6.4375 L 2.6875 -5 L 2.6875 -1.875 L 5.453125 -1.875 L 5.453125 0 L 0.71875 0 L 0.71875 -10.71875 C 0.71875 -11.195312 0.875 -11.597656 1.1875 -11.921875 C 1.5 -12.253906 1.878906 -12.421875 2.328125 -12.421875 L 5.453125 -12.421875 Z M 5.453125 -10.546875 "/></g></g></g><g fill="#0057ff" fill-opacity="0.502"><g transform="translate(72.964766, 31.406589)"><g><path d="M 4.203125 -3.390625 L 6.171875 -4.375 L 6.171875 -1.703125 C 6.171875 -1.222656 6.007812 -0.816406 5.6875 -0.484375 C 5.375 -0.160156 5 0 4.5625 0 L 2.328125 0 C 1.878906 0 1.5 -0.164062 1.1875 -0.5 C 0.875 -0.832031 0.71875 -1.234375 0.71875 -1.703125 L 0.71875 -10.71875 C 0.71875 -11.195312 0.875 -11.597656 1.1875 -11.921875 C 1.5 -12.253906 1.878906 -12.421875 2.328125 -12.421875 L 4.5625 -12.421875 C 5 -12.421875 5.375 -12.253906 5.6875 -11.921875 C 6.007812 -11.597656 6.171875 -11.195312 6.171875 -10.71875 L 6.171875 -9.65625 L 4.203125 -8.671875 L 4.203125 -10.546875 L 2.6875 -10.546875 L 2.6875 -1.875 L 4.203125 -1.875 Z M 4.203125 -3.390625 "/></g></g></g><g fill="#0057ff" fill-opacity="0.502"><g transform="translate(79.669322, 31.406589)"><g><path d="M 7.59375 0 L 5.5 0 L 3.515625 -5.078125 L 2.6875 -3.34375 L 2.6875 0 L 0.71875 0 L 0.71875 -12.421875 L 2.6875 -12.421875 L 2.6875 -7.71875 L 4.796875 -12.421875 L 6.9375 -12.421875 L 4.59375 -7.375 Z M 7.59375 0 "/></g></g></g><g fill="#0057ff" fill-opacity="0.502"><g transform="translate(86.910245, 31.406589)"><g><path d="M 6.171875 0 L 4.203125 0 L 4.203125 -4.46875 L 0.71875 -2.6875 L 0.71875 -12.421875 L 2.6875 -12.421875 L 2.6875 -5.859375 L 4.203125 -6.65625 L 4.203125 -9.03125 L 6.171875 -10.015625 Z M 6.171875 0 "/></g></g></g><g fill="#1c61a5" fill-opacity="1"><g transform="translate(32.863498, 30.962685)"><g><path d="M 5.1875 -0.90625 C 5.113281 -0.75 5.007812 -0.613281 4.875 -0.5 C 4.570312 -0.164062 4.195312 0 3.75 0 L 2.328125 0 C 1.878906 0 1.5 -0.164062 1.1875 -0.5 C 0.875 -0.832031 0.71875 -1.234375 0.71875 -1.703125 L 0.71875 -12.421875 L 2.6875 -12.421875 L 2.6875 -1.875 L 4.203125 -1.875 L 4.203125 -12.421875 L 6.171875 -12.421875 L 6.171875 -1.875 L 7.6875 -1.875 L 7.6875 -12.421875 L 9.65625 -12.421875 L 9.65625 -1.703125 C 9.65625 -1.222656 9.492188 -0.816406 9.171875 -0.484375 C 8.859375 -0.160156 8.484375 0 8.046875 0 L 6.609375 0 C 6.171875 0 5.789062 -0.164062 5.46875 -0.5 C 5.351562 -0.632812 5.257812 -0.769531 5.1875 -0.90625 Z M 5.1875 -0.90625 "/></g></g></g><g fill="#1c61a5" fill-opacity="1"><g transform="translate(43.233214, 30.962685)"><g><path d="M 5.453125 -10.546875 L 2.6875 -10.546875 L 2.6875 -7.203125 L 5.453125 -8.640625 L 5.453125 -6.4375 L 2.6875 -5 L 2.6875 -1.875 L 5.453125 -1.875 L 5.453125 0 L 0.71875 0 L 0.71875 -10.71875 C 0.71875 -11.195312 0.875 -11.597656 1.1875 -11.921875 C 1.5 -12.253906 1.878906 -12.421875 2.328125 -12.421875 L 5.453125 -12.421875 Z M 5.453125 -10.546875 "/></g></g></g><g fill="#1c61a5" fill-opacity="1"><g transform="translate(49.222618, 30.962685)"><g><path d="M 0.71875 0 L 0.71875 -12.421875 L 2.6875 -12.421875 L 2.6875 0 Z M 0.71875 0 "/></g></g></g><g fill="#1c61a5" fill-opacity="1"><g transform="translate(52.619593, 30.962685)"><g><path d="M 0.71875 -10.71875 C 0.71875 -11.207031 0.875 -11.613281 1.1875 -11.9375 C 1.5 -12.257812 1.878906 -12.421875 2.328125 -12.421875 L 4.5625 -12.421875 C 5 -12.421875 5.375 -12.253906 5.6875 -11.921875 C 6.007812 -11.597656 6.171875 -11.195312 6.171875 -10.71875 L 6.171875 -10.1875 L 4.203125 -9.203125 L 4.203125 -10.546875 L 2.6875 -10.546875 L 2.6875 -7.234375 L 6.171875 -9.03125 L 6.171875 -1.703125 C 6.171875 -1.234375 6.007812 -0.832031 5.6875 -0.5 C 5.375 -0.164062 5 0 4.5625 0 L 2.328125 0 C 1.878906 0 1.5 -0.160156 1.1875 -0.484375 C 0.875 -0.816406 0.71875 -1.222656 0.71875 -1.703125 L 0.71875 -2.859375 L 2.6875 -3.84375 L 2.6875 -1.875 L 4.203125 -1.875 L 4.203125 -5.8125 L 0.71875 -4.015625 Z M 0.71875 -10.71875 "/></g></g></g><g fill="#1c61a5" fill-opacity="1"><g transform="translate(59.502937, 30.962685)"><g><path d="M 0.71875 0 L 0.71875 -12.421875 L 4.5625 -12.421875 C 5 -12.421875 5.375 -12.253906 5.6875 -11.921875 C 6.007812 -11.597656 6.171875 -11.195312 6.171875 -10.71875 L 6.171875 -8.046875 C 6.171875 -7.648438 6.097656 -7.316406 5.953125 -7.046875 C 5.859375 -6.835938 5.707031 -6.664062 5.5 -6.53125 L 6.171875 -6.53125 L 6.171875 -1.703125 C 6.171875 -1.222656 6.007812 -0.816406 5.6875 -0.484375 C 5.375 -0.160156 5 0 4.5625 0 Z M 4.203125 -8.046875 L 4.203125 -10.546875 L 2.6875 -10.546875 L 2.6875 -7.234375 Z M 4.203125 -5.828125 L 2.6875 -5.046875 L 2.6875 -1.875 L 4.203125 -1.875 Z M 4.203125 -5.828125 "/></g></g></g><g fill="#1c61a5" fill-opacity="1"><g transform="translate(66.386282, 30.962685)"><g><path d="M 5.453125 -10.546875 L 2.6875 -10.546875 L 2.6875 -7.203125 L 5.453125 -8.640625 L 5.453125 -6.4375 L 2.6875 -5 L 2.6875 -1.875 L 5.453125 -1.875 L 5.453125 0 L 0.71875 0 L 0.71875 -10.71875 C 0.71875 -11.195312 0.875 -11.597656 1.1875 -11.921875 C 1.5 -12.253906 1.878906 -12.421875 2.328125 -12.421875 L 5.453125 -12.421875 Z M 5.453125 -10.546875 "/></g></g></g><g fill="#1c61a5" fill-opacity="1"><g transform="translate(72.375685, 30.962685)"><g><path d="M 4.203125 -3.390625 L 6.171875 -4.375 L 6.171875 -1.703125 C 6.171875 -1.222656 6.007812 -0.816406 5.6875 -0.484375 C 5.375 -0.160156 5 0 4.5625 0 L 2.328125 0 C 1.878906 0 1.5 -0.164062 1.1875 -0.5 C 0.875 -0.832031 0.71875 -1.234375 0.71875 -1.703125 L 0.71875 -10.71875 C 0.71875 -11.195312 0.875 -11.597656 1.1875 -11.921875 C 1.5 -12.253906 1.878906 -12.421875 2.328125 -12.421875 L 4.5625 -12.421875 C 5 -12.421875 5.375 -12.253906 5.6875 -11.921875 C 6.007812 -11.597656 6.171875 -11.195312 6.171875 -10.71875 L 6.171875 -9.65625 L 4.203125 -8.671875 L 4.203125 -10.546875 L 2.6875 -10.546875 L 2.6875 -1.875 L 4.203125 -1.875 Z M 4.203125 -3.390625 "/></g></g></g><g fill="#1c61a5" fill-opacity="1"><g transform="translate(79.080242, 30.962685)"><g><path d="M 7.59375 0 L 5.5 0 L 3.515625 -5.078125 L 2.6875 -3.34375 L 2.6875 0 L 0.71875 0 L 0.71875 -12.421875 L 2.6875 -12.421875 L 2.6875 -7.71875 L 4.796875 -12.421875 L 6.9375 -12.421875 L 4.59375 -7.375 Z M 7.59375 0 "/></g></g></g><g fill="#1c61a5" fill-opacity="1"><g transform="translate(86.321164, 30.962685)"><g><path d="M 6.171875 0 L 4.203125 0 L 4.203125 -4.46875 L 0.71875 -2.6875 L 0.71875 -12.421875 L 2.6875 -12.421875 L 2.6875 -5.859375 L 4.203125 -6.65625 L 4.203125 -9.03125 L 6.171875 -10.015625 Z M 6.171875 0 "/></g></g></g><g fill="#0057ff" fill-opacity="0.302"><g transform="translate(33.837599, 17.473612)"><g><path d="M 5.453125 -10.546875 L 2.6875 -10.546875 L 2.6875 -7.203125 L 5.453125 -8.640625 L 5.453125 -6.4375 L 2.6875 -5 L 2.6875 -1.875 L 5.453125 -1.875 L 5.453125 0 L 0.71875 0 L 0.71875 -10.71875 C 0.71875 -11.195312 0.875 -11.597656 1.1875 -11.921875 C 1.5 -12.253906 1.878906 -12.421875 2.328125 -12.421875 L 5.453125 -12.421875 Z M 5.453125 -10.546875 "/></g></g></g><g fill="#0057ff" fill-opacity="0.302"><g transform="translate(39.827002, 17.473612)"><g><path d="M 0.71875 0 L 0.71875 -10.71875 C 0.71875 -11.195312 0.875 -11.597656 1.1875 -11.921875 C 1.5 -12.253906 1.878906 -12.421875 2.328125 -12.421875 L 4.5625 -12.421875 C 5 -12.421875 5.375 -12.253906 5.6875 -11.921875 C 6.007812 -11.597656 6.171875 -11.195312 6.171875 -10.71875 L 6.171875 0 L 4.203125 0 L 4.203125 -5.265625 L 2.6875 -4.46875 L 2.6875 0 Z M 2.6875 -6.671875 L 4.203125 -7.46875 L 4.203125 -10.546875 L 2.6875 -10.546875 Z M 2.6875 -6.671875 "/></g></g></g><g fill="#0057ff" fill-opacity="0.302"><g transform="translate(46.710347, 17.473612)"><g><path d="M 6.171875 -12.421875 L 6.171875 -1.703125 C 6.171875 -1.222656 6.007812 -0.816406 5.6875 -0.484375 C 5.375 -0.160156 5 0 4.5625 0 L 2.328125 0 C 1.878906 0 1.5 -0.164062 1.1875 -0.5 C 0.875 -0.832031 0.71875 -1.234375 0.71875 -1.703125 L 0.71875 -12.421875 L 2.6875 -12.421875 L 2.6875 -1.875 L 4.203125 -1.875 L 4.203125 -12.421875 Z M 6.171875 -12.421875 "/></g></g></g><g fill="#0057ff" fill-opacity="0.302"><g transform="translate(53.593691, 17.473612)"><g><path d="M 6.140625 0 L 4.125 0 L 3.09375 -3.703125 L 2.03125 0 L 0.015625 0 L 1.796875 -6.359375 L 0.109375 -12.421875 L 2.125 -12.421875 L 3.09375 -9.046875 L 4.03125 -12.421875 L 6.0625 -12.421875 L 4.359375 -6.359375 Z M 6.140625 0 "/></g></g></g><g fill="#0057ff" fill-opacity="0.502"><g transform="translate(33.248519, 17.029709)"><g><path d="M 5.453125 -10.546875 L 2.6875 -10.546875 L 2.6875 -7.203125 L 5.453125 -8.640625 L 5.453125 -6.4375 L 2.6875 -5 L 2.6875 -1.875 L 5.453125 -1.875 L 5.453125 0 L 0.71875 0 L 0.71875 -10.71875 C 0.71875 -11.195312 0.875 -11.597656 1.1875 -11.921875 C 1.5 -12.253906 1.878906 -12.421875 2.328125 -12.421875 L 5.453125 -12.421875 Z M 5.453125 -10.546875 "/></g></g></g><g fill="#0057ff" fill-opacity="0.502"><g transform="translate(39.237923, 17.029709)"><g><path d="M 0.71875 0 L 0.71875 -10.71875 C 0.71875 -11.195312 0.875 -11.597656 1.1875 -11.921875 C 1.5 -12.253906 1.878906 -12.421875 2.328125 -12.421875 L 4.5625 -12.421875 C 5 -12.421875 5.375 -12.253906 5.6875 -11.921875 C 6.007812 -11.597656 6.171875 -11.195312 6.171875 -10.71875 L 6.171875 0 L 4.203125 0 L 4.203125 -5.265625 L 2.6875 -4.46875 L 2.6875 0 Z M 2.6875 -6.671875 L 4.203125 -7.46875 L 4.203125 -10.546875 L 2.6875 -10.546875 Z M 2.6875 -6.671875 "/></g></g></g><g fill="#0057ff" fill-opacity="0.502"><g transform="translate(46.121267, 17.029709)"><g><path d="M 6.171875 -12.421875 L 6.171875 -1.703125 C 6.171875 -1.222656 6.007812 -0.816406 5.6875 -0.484375 C 5.375 -0.160156 5 0 4.5625 0 L 2.328125 0 C 1.878906 0 1.5 -0.164062 1.1875 -0.5 C 0.875 -0.832031 0.71875 -1.234375 0.71875 -1.703125 L 0.71875 -12.421875 L 2.6875 -12.421875 L 2.6875 -1.875 L 4.203125 -1.875 L 4.203125 -12.421875 Z M 6.171875 -12.421875 "/></g></g></g><g fill="#0057ff" fill-opacity="0.502"><g transform="translate(53.004611, 17.029709)"><g><path d="M 6.140625 0 L 4.125 0 L 3.09375 -3.703125 L 2.03125 0 L 0.015625 0 L 1.796875 -6.359375 L 0.109375 -12.421875 L 2.125 -12.421875 L 3.09375 -9.046875 L 4.03125 -12.421875 L 6.0625 -12.421875 L 4.359375 -6.359375 Z M 6.140625 0 "/></g></g></g><g fill="#1c61a5" fill-opacity="1"><g transform="translate(32.659439, 16.585805)"><g><path d="M 5.453125 -10.546875 L 2.6875 -10.546875 L 2.6875 -7.203125 L 5.453125 -8.640625 L 5.453125 -6.4375 L 2.6875 -5 L 2.6875 -1.875 L 5.453125 -1.875 L 5.453125 0 L 0.71875 0 L 0.71875 -10.71875 C 0.71875 -11.195312 0.875 -11.597656 1.1875 -11.921875 C 1.5 -12.253906 1.878906 -12.421875 2.328125 -12.421875 L 5.453125 -12.421875 Z M 5.453125 -10.546875 "/></g></g></g><g fill="#1c61a5" fill-opacity="1"><g transform="translate(38.648843, 16.585805)"><g><path d="M 0.71875 0 L 0.71875 -10.71875 C 0.71875 -11.195312 0.875 -11.597656 1.1875 -11.921875 C 1.5 -12.253906 1.878906 -12.421875 2.328125 -12.421875 L 4.5625 -12.421875 C 5 -12.421875 5.375 -12.253906 5.6875 -11.921875 C 6.007812 -11.597656 6.171875 -11.195312 6.171875 -10.71875 L 6.171875 0 L 4.203125 0 L 4.203125 -5.265625 L 2.6875 -4.46875 L 2.6875 0 Z M 2.6875 -6.671875 L 4.203125 -7.46875 L 4.203125 -10.546875 L 2.6875 -10.546875 Z M 2.6875 -6.671875 "/></g></g></g><g fill="#1c61a5" fill-opacity="1"><g transform="translate(45.532187, 16.585805)"><g><path d="M 6.171875 -12.421875 L 6.171875 -1.703125 C 6.171875 -1.222656 6.007812 -0.816406 5.6875 -0.484375 C 5.375 -0.160156 5 0 4.5625 0 L 2.328125 0 C 1.878906 0 1.5 -0.164062 1.1875 -0.5 C 0.875 -0.832031 0.71875 -1.234375 0.71875 -1.703125 L 0.71875 -12.421875 L 2.6875 -12.421875 L 2.6875 -1.875 L 4.203125 -1.875 L 4.203125 -12.421875 Z M 6.171875 -12.421875 "/></g></g></g><g fill="#1c61a5" fill-opacity="1"><g transform="translate(52.415531, 16.585805)"><g><path d="M 6.140625 0 L 4.125 0 L 3.09375 -3.703125 L 2.03125 0 L 0.015625 0 L 1.796875 -6.359375 L 0.109375 -12.421875 L 2.125 -12.421875 L 3.09375 -9.046875 L 4.03125 -12.421875 L 6.0625 -12.421875 L 4.359375 -6.359375 Z M 6.140625 0 "/></g></g></g><g fill="#0057ff" fill-opacity="0.302"><g transform="translate(67.131263, 17.288583)"><g><path d="M 0.71875 -10.71875 C 0.71875 -11.207031 0.875 -11.613281 1.1875 -11.9375 C 1.5 -12.257812 1.878906 -12.421875 2.328125 -12.421875 L 4.5625 -12.421875 C 5 -12.421875 5.375 -12.253906 5.6875 -11.921875 C 6.007812 -11.597656 6.171875 -11.195312 6.171875 -10.71875 L 6.171875 -10.1875 L 4.203125 -9.203125 L 4.203125 -10.546875 L 2.6875 -10.546875 L 2.6875 -7.234375 L 6.171875 -9.03125 L 6.171875 -1.703125 C 6.171875 -1.234375 6.007812 -0.832031 5.6875 -0.5 C 5.375 -0.164062 5 0 4.5625 0 L 2.328125 0 C 1.878906 0 1.5 -0.160156 1.1875 -0.484375 C 0.875 -0.816406 0.71875 -1.222656 0.71875 -1.703125 L 0.71875 -2.859375 L 2.6875 -3.84375 L 2.6875 -1.875 L 4.203125 -1.875 L 4.203125 -5.8125 L 0.71875 -4.015625 Z M 0.71875 -10.71875 "/></g></g></g><g fill="#0057ff" fill-opacity="0.302"><g transform="translate(74.010141, 17.288583)"><g><path d="M 5.453125 -10.546875 L 2.6875 -10.546875 L 2.6875 -7.203125 L 5.453125 -8.640625 L 5.453125 -6.4375 L 2.6875 -5 L 2.6875 -1.875 L 5.453125 -1.875 L 5.453125 0 L 0.71875 0 L 0.71875 -10.71875 C 0.71875 -11.195312 0.875 -11.597656 1.1875 -11.921875 C 1.5 -12.253906 1.878906 -12.421875 2.328125 -12.421875 L 5.453125 -12.421875 Z M 5.453125 -10.546875 "/></g></g></g><g fill="#0057ff" fill-opacity="0.302"><g transform="translate(79.995656, 17.288583)"><g><path d="M 4.203125 -3.390625 L 6.171875 -4.375 L 6.171875 -1.703125 C 6.171875 -1.222656 6.007812 -0.816406 5.6875 -0.484375 C 5.375 -0.160156 5 0 4.5625 0 L 2.328125 0 C 1.878906 0 1.5 -0.164062 1.1875 -0.5 C 0.875 -0.832031 0.71875 -1.234375 0.71875 -1.703125 L 0.71875 -10.71875 C 0.71875 -11.195312 0.875 -11.597656 1.1875 -11.921875 C 1.5 -12.253906 1.878906 -12.421875 2.328125 -12.421875 L 4.5625 -12.421875 C 5 -12.421875 5.375 -12.253906 5.6875 -11.921875 C 6.007812 -11.597656 6.171875 -11.195312 6.171875 -10.71875 L 6.171875 -9.65625 L 4.203125 -8.671875 L 4.203125 -10.546875 L 2.6875 -10.546875 L 2.6875 -1.875 L 4.203125 -1.875 Z M 4.203125 -3.390625 "/></g></g></g><g fill="#0057ff" fill-opacity="0.302"><g transform="translate(86.695859, 17.288583)"><g><path d="M 2.234375 0 L 2.234375 -10.546875 L 0.265625 -10.546875 L 0.265625 -12.421875 L 6.171875 -12.421875 L 6.171875 -10.546875 L 4.203125 -10.546875 L 4.203125 0 Z M 2.234375 0 "/></g></g></g><g fill="#0057ff" fill-opacity="0.302"><g transform="translate(93.128056, 17.288583)"><g><path d="M 0.71875 0 L 0.71875 -12.421875 L 2.6875 -12.421875 L 2.6875 0 Z M 0.71875 0 "/></g></g></g><g fill="#0057ff" fill-opacity="0.302"><g transform="translate(96.522829, 17.288583)"><g><path d="M 6.171875 -10.71875 L 6.171875 -1.703125 C 6.171875 -1.222656 6.007812 -0.816406 5.6875 -0.484375 C 5.375 -0.160156 5 0 4.5625 0 L 2.328125 0 C 1.878906 0 1.5 -0.164062 1.1875 -0.5 C 0.875 -0.832031 0.71875 -1.234375 0.71875 -1.703125 L 0.71875 -10.71875 C 0.71875 -11.195312 0.875 -11.597656 1.1875 -11.921875 C 1.5 -12.253906 1.878906 -12.421875 2.328125 -12.421875 L 4.5625 -12.421875 C 5 -12.421875 5.375 -12.253906 5.6875 -11.921875 C 6.007812 -11.597656 6.171875 -11.195312 6.171875 -10.71875 Z M 4.203125 -1.875 L 4.203125 -10.546875 L 2.6875 -10.546875 L 2.6875 -1.875 Z M 4.203125 -1.875 "/></g></g></g><g fill="#0057ff" fill-opacity="0.302"><g transform="translate(103.401707, 17.288583)"><g><path d="M 2.6875 0 L 0.71875 0 L 0.71875 -12.421875 L 2.6875 -12.421875 L 2.6875 -11.515625 C 2.75 -11.671875 2.84375 -11.8125 2.96875 -11.9375 C 3.289062 -12.257812 3.671875 -12.421875 4.109375 -12.421875 L 4.5625 -12.421875 C 5 -12.421875 5.375 -12.253906 5.6875 -11.921875 C 6.007812 -11.597656 6.171875 -11.195312 6.171875 -10.71875 L 6.171875 0 L 4.203125 0 L 4.203125 -10.546875 L 2.6875 -10.546875 Z M 2.6875 0 "/></g></g></g><g fill="#0057ff" fill-opacity="0.302"><g transform="translate(110.280584, 17.288583)"><g/></g></g><g fill="#0057ff" fill-opacity="0.302"><g transform="translate(113.675357, 17.288583)"><g><path d="M 6.171875 0 L 4.203125 0 L 4.203125 -4.46875 L 0.71875 -2.6875 L 0.71875 -12.421875 L 2.6875 -12.421875 L 2.6875 -5.859375 L 4.203125 -6.65625 L 4.203125 -9.03125 L 6.171875 -10.015625 Z M 6.171875 0 "/></g></g></g><g fill="#0057ff" fill-opacity="0.502"><g transform="translate(66.54218, 16.844678)"><g><path d="M 0.71875 -10.71875 C 0.71875 -11.207031 0.875 -11.613281 1.1875 -11.9375 C 1.5 -12.257812 1.878906 -12.421875 2.328125 -12.421875 L 4.5625 -12.421875 C 5 -12.421875 5.375 -12.253906 5.6875 -11.921875 C 6.007812 -11.597656 6.171875 -11.195312 6.171875 -10.71875 L 6.171875 -10.1875 L 4.203125 -9.203125 L 4.203125 -10.546875 L 2.6875 -10.546875 L 2.6875 -7.234375 L 6.171875 -9.03125 L 6.171875 -1.703125 C 6.171875 -1.234375 6.007812 -0.832031 5.6875 -0.5 C 5.375 -0.164062 5 0 4.5625 0 L 2.328125 0 C 1.878906 0 1.5 -0.160156 1.1875 -0.484375 C 0.875 -0.816406 0.71875 -1.222656 0.71875 -1.703125 L 0.71875 -2.859375 L 2.6875 -3.84375 L 2.6875 -1.875 L 4.203125 -1.875 L 4.203125 -5.8125 L 0.71875 -4.015625 Z M 0.71875 -10.71875 "/></g></g></g><g fill="#0057ff" fill-opacity="0.502"><g transform="translate(73.421057, 16.844678)"><g><path d="M 5.453125 -10.546875 L 2.6875 -10.546875 L 2.6875 -7.203125 L 5.453125 -8.640625 L 5.453125 -6.4375 L 2.6875 -5 L 2.6875 -1.875 L 5.453125 -1.875 L 5.453125 0 L 0.71875 0 L 0.71875 -10.71875 C 0.71875 -11.195312 0.875 -11.597656 1.1875 -11.921875 C 1.5 -12.253906 1.878906 -12.421875 2.328125 -12.421875 L 5.453125 -12.421875 Z M 5.453125 -10.546875 "/></g></g></g><g fill="#0057ff" fill-opacity="0.502"><g transform="translate(79.406573, 16.844678)"><g><path d="M 4.203125 -3.390625 L 6.171875 -4.375 L 6.171875 -1.703125 C 6.171875 -1.222656 6.007812 -0.816406 5.6875 -0.484375 C 5.375 -0.160156 5 0 4.5625 0 L 2.328125 0 C 1.878906 0 1.5 -0.164062 1.1875 -0.5 C 0.875 -0.832031 0.71875 -1.234375 0.71875 -1.703125 L 0.71875 -10.71875 C 0.71875 -11.195312 0.875 -11.597656 1.1875 -11.921875 C 1.5 -12.253906 1.878906 -12.421875 2.328125 -12.421875 L 4.5625 -12.421875 C 5 -12.421875 5.375 -12.253906 5.6875 -11.921875 C 6.007812 -11.597656 6.171875 -11.195312 6.171875 -10.71875 L 6.171875 -9.65625 L 4.203125 -8.671875 L 4.203125 -10.546875 L 2.6875 -10.546875 L 2.6875 -1.875 L 4.203125 -1.875 Z M 4.203125 -3.390625 "/></g></g></g><g fill="#0057ff" fill-opacity="0.502"><g transform="translate(86.106776, 16.844678)"><g><path d="M 2.234375 0 L 2.234375 -10.546875 L 0.265625 -10.546875 L 0.265625 -12.421875 L 6.171875 -12.421875 L 6.171875 -10.546875 L 4.203125 -10.546875 L 4.203125 0 Z M 2.234375 0 "/></g></g></g><g fill="#0057ff" fill-opacity="0.502"><g transform="translate(92.538973, 16.844678)"><g><path d="M 0.71875 0 L 0.71875 -12.421875 L 2.6875 -12.421875 L 2.6875 0 Z M 0.71875 0 "/></g></g></g><g fill="#0057ff" fill-opacity="0.502"><g transform="translate(95.933746, 16.844678)"><g><path d="M 6.171875 -10.71875 L 6.171875 -1.703125 C 6.171875 -1.222656 6.007812 -0.816406 5.6875 -0.484375 C 5.375 -0.160156 5 0 4.5625 0 L 2.328125 0 C 1.878906 0 1.5 -0.164062 1.1875 -0.5 C 0.875 -0.832031 0.71875 -1.234375 0.71875 -1.703125 L 0.71875 -10.71875 C 0.71875 -11.195312 0.875 -11.597656 1.1875 -11.921875 C 1.5 -12.253906 1.878906 -12.421875 2.328125 -12.421875 L 4.5625 -12.421875 C 5 -12.421875 5.375 -12.253906 5.6875 -11.921875 C 6.007812 -11.597656 6.171875 -11.195312 6.171875 -10.71875 Z M 4.203125 -1.875 L 4.203125 -10.546875 L 2.6875 -10.546875 L 2.6875 -1.875 Z M 4.203125 -1.875 "/></g></g></g><g fill="#0057ff" fill-opacity="0.502"><g transform="translate(102.812624, 16.844678)"><g><path d="M 2.6875 0 L 0.71875 0 L 0.71875 -12.421875 L 2.6875 -12.421875 L 2.6875 -11.515625 C 2.75 -11.671875 2.84375 -11.8125 2.96875 -11.9375 C 3.289062 -12.257812 3.671875 -12.421875 4.109375 -12.421875 L 4.5625 -12.421875 C 5 -12.421875 5.375 -12.253906 5.6875 -11.921875 C 6.007812 -11.597656 6.171875 -11.195312 6.171875 -10.71875 L 6.171875 0 L 4.203125 0 L 4.203125 -10.546875 L 2.6875 -10.546875 Z M 2.6875 0 "/></g></g></g><g fill="#0057ff" fill-opacity="0.502"><g transform="translate(109.691501, 16.844678)"><g/></g></g><g fill="#0057ff" fill-opacity="0.502"><g transform="translate(113.086274, 16.844678)"><g><path d="M 6.171875 0 L 4.203125 0 L 4.203125 -4.46875 L 0.71875 -2.6875 L 0.71875 -12.421875 L 2.6875 -12.421875 L 2.6875 -5.859375 L 4.203125 -6.65625 L 4.203125 -9.03125 L 6.171875 -10.015625 Z M 6.171875 0 "/></g></g></g><g fill="#ff1616" fill-opacity="1"><g transform="translate(65.953099, 16.400774)"><g><path d="M 0.71875 -10.71875 C 0.71875 -11.207031 0.875 -11.613281 1.1875 -11.9375 C 1.5 -12.257812 1.878906 -12.421875 2.328125 -12.421875 L 4.5625 -12.421875 C 5 -12.421875 5.375 -12.253906 5.6875 -11.921875 C 6.007812 -11.597656 6.171875 -11.195312 6.171875 -10.71875 L 6.171875 -10.1875 L 4.203125 -9.203125 L 4.203125 -10.546875 L 2.6875 -10.546875 L 2.6875 -7.234375 L 6.171875 -9.03125 L 6.171875 -1.703125 C 6.171875 -1.234375 6.007812 -0.832031 5.6875 -0.5 C 5.375 -0.164062 5 0 4.5625 0 L 2.328125 0 C 1.878906 0 1.5 -0.160156 1.1875 -0.484375 C 0.875 -0.816406 0.71875 -1.222656 0.71875 -1.703125 L 0.71875 -2.859375 L 2.6875 -3.84375 L 2.6875 -1.875 L 4.203125 -1.875 L 4.203125 -5.8125 L 0.71875 -4.015625 Z M 0.71875 -10.71875 "/></g></g></g><g fill="#ff1616" fill-opacity="1"><g transform="translate(72.831977, 16.400774)"><g><path d="M 5.453125 -10.546875 L 2.6875 -10.546875 L 2.6875 -7.203125 L 5.453125 -8.640625 L 5.453125 -6.4375 L 2.6875 -5 L 2.6875 -1.875 L 5.453125 -1.875 L 5.453125 0 L 0.71875 0 L 0.71875 -10.71875 C 0.71875 -11.195312 0.875 -11.597656 1.1875 -11.921875 C 1.5 -12.253906 1.878906 -12.421875 2.328125 -12.421875 L 5.453125 -12.421875 Z M 5.453125 -10.546875 "/></g></g></g><g fill="#ff1616" fill-opacity="1"><g transform="translate(78.817492, 16.400774)"><g><path d="M 4.203125 -3.390625 L 6.171875 -4.375 L 6.171875 -1.703125 C 6.171875 -1.222656 6.007812 -0.816406 5.6875 -0.484375 C 5.375 -0.160156 5 0 4.5625 0 L 2.328125 0 C 1.878906 0 1.5 -0.164062 1.1875 -0.5 C 0.875 -0.832031 0.71875 -1.234375 0.71875 -1.703125 L 0.71875 -10.71875 C 0.71875 -11.195312 0.875 -11.597656 1.1875 -11.921875 C 1.5 -12.253906 1.878906 -12.421875 2.328125 -12.421875 L 4.5625 -12.421875 C 5 -12.421875 5.375 -12.253906 5.6875 -11.921875 C 6.007812 -11.597656 6.171875 -11.195312 6.171875 -10.71875 L 6.171875 -9.65625 L 4.203125 -8.671875 L 4.203125 -10.546875 L 2.6875 -10.546875 L 2.6875 -1.875 L 4.203125 -1.875 Z M 4.203125 -3.390625 "/></g></g></g><g fill="#ff1616" fill-opacity="1"><g transform="translate(85.517695, 16.400774)"><g><path d="M 2.234375 0 L 2.234375 -10.546875 L 0.265625 -10.546875 L 0.265625 -12.421875 L 6.171875 -12.421875 L 6.171875 -10.546875 L 4.203125 -10.546875 L 4.203125 0 Z M 2.234375 0 "/></g></g></g><g fill="#ff1616" fill-opacity="1"><g transform="translate(91.949892, 16.400774)"><g><path d="M 0.71875 0 L 0.71875 -12.421875 L 2.6875 -12.421875 L 2.6875 0 Z M 0.71875 0 "/></g></g></g><g fill="#ff1616" fill-opacity="1"><g transform="translate(95.344665, 16.400774)"><g><path d="M 6.171875 -10.71875 L 6.171875 -1.703125 C 6.171875 -1.222656 6.007812 -0.816406 5.6875 -0.484375 C 5.375 -0.160156 5 0 4.5625 0 L 2.328125 0 C 1.878906 0 1.5 -0.164062 1.1875 -0.5 C 0.875 -0.832031 0.71875 -1.234375 0.71875 -1.703125 L 0.71875 -10.71875 C 0.71875 -11.195312 0.875 -11.597656 1.1875 -11.921875 C 1.5 -12.253906 1.878906 -12.421875 2.328125 -12.421875 L 4.5625 -12.421875 C 5 -12.421875 5.375 -12.253906 5.6875 -11.921875 C 6.007812 -11.597656 6.171875 -11.195312 6.171875 -10.71875 Z M 4.203125 -1.875 L 4.203125 -10.546875 L 2.6875 -10.546875 L 2.6875 -1.875 Z M 4.203125 -1.875 "/></g></g></g><g fill="#ff1616" fill-opacity="1"><g transform="translate(102.223543, 16.400774)"><g><path d="M 2.6875 0 L 0.71875 0 L 0.71875 -12.421875 L 2.6875 -12.421875 L 2.6875 -11.515625 C 2.75 -11.671875 2.84375 -11.8125 2.96875 -11.9375 C 3.289062 -12.257812 3.671875 -12.421875 4.109375 -12.421875 L 4.5625 -12.421875 C 5 -12.421875 5.375 -12.253906 5.6875 -11.921875 C 6.007812 -11.597656 6.171875 -11.195312 6.171875 -10.71875 L 6.171875 0 L 4.203125 0 L 4.203125 -10.546875 L 2.6875 -10.546875 Z M 2.6875 0 "/></g></g></g><g fill="#ff1616" fill-opacity="1"><g transform="translate(109.10242, 16.400774)"><g/></g></g><g fill="#ff1616" fill-opacity="1"><g transform="translate(112.497193, 16.400774)"><g><path d="M 6.171875 0 L 4.203125 0 L 4.203125 -4.46875 L 0.71875 -2.6875 L 0.71875 -12.421875 L 2.6875 -12.421875 L 2.6875 -5.859375 L 4.203125 -6.65625 L 4.203125 -9.03125 L 6.171875 -10.015625 Z M 6.171875 0 "/></g></g></g><g fill="#0057ff" fill-opacity="0.302"><g transform="translate(101.283247, 31.665454)"><g><path d="M 0.71875 -10.71875 C 0.71875 -11.207031 0.875 -11.613281 1.1875 -11.9375 C 1.5 -12.257812 1.878906 -12.421875 2.328125 -12.421875 L 4.5625 -12.421875 C 5 -12.421875 5.375 -12.253906 5.6875 -11.921875 C 6.007812 -11.597656 6.171875 -11.195312 6.171875 -10.71875 L 6.171875 -10.1875 L 4.203125 -9.203125 L 4.203125 -10.546875 L 2.6875 -10.546875 L 2.6875 -7.234375 L 6.171875 -9.03125 L 6.171875 -1.703125 C 6.171875 -1.234375 6.007812 -0.832031 5.6875 -0.5 C 5.375 -0.164062 5 0 4.5625 0 L 2.328125 0 C 1.878906 0 1.5 -0.160156 1.1875 -0.484375 C 0.875 -0.816406 0.71875 -1.222656 0.71875 -1.703125 L 0.71875 -2.859375 L 2.6875 -3.84375 L 2.6875 -1.875 L 4.203125 -1.875 L 4.203125 -5.8125 L 0.71875 -4.015625 Z M 0.71875 -10.71875 "/></g></g></g><g fill="#0057ff" fill-opacity="0.302"><g transform="translate(108.162124, 31.665454)"><g><path d="M 4.203125 -7.234375 L 4.203125 -10.546875 L 2.6875 -10.546875 L 2.6875 -6.4375 Z M 2.6875 0 L 0.71875 0 L 0.71875 -12.421875 L 4.5625 -12.421875 C 5 -12.421875 5.375 -12.253906 5.6875 -11.921875 C 6.007812 -11.597656 6.171875 -11.195312 6.171875 -10.71875 L 6.171875 -6.03125 L 2.6875 -4.234375 Z M 2.6875 0 "/></g></g></g><g fill="#0057ff" fill-opacity="0.302"><g transform="translate(114.862327, 31.665454)"><g><path d="M 5.1875 0 L 3.125 -4.640625 L 2.6875 -4.421875 L 2.6875 0 L 0.71875 0 L 0.71875 -12.421875 L 4.5625 -12.421875 C 5 -12.421875 5.375 -12.253906 5.6875 -11.921875 C 6.007812 -11.597656 6.171875 -11.195312 6.171875 -10.71875 L 6.171875 -6.203125 L 4.859375 -5.546875 L 7.328125 0 Z M 4.203125 -7.421875 L 4.203125 -10.546875 L 2.6875 -10.546875 L 2.6875 -6.609375 Z M 4.203125 -7.421875 "/></g></g></g><g fill="#0057ff" fill-opacity="0.302"><g transform="translate(121.741205, 31.665454)"><g><path d="M 0.71875 0 L 0.71875 -12.421875 L 2.6875 -12.421875 L 2.6875 0 Z M 0.71875 0 "/></g></g></g><g fill="#0057ff" fill-opacity="0.302"><g transform="translate(125.135978, 31.665454)"><g><path d="M 2.6875 0 L 0.71875 0 L 0.71875 -12.421875 L 2.6875 -12.421875 L 2.6875 -11.515625 C 2.75 -11.671875 2.84375 -11.8125 2.96875 -11.9375 C 3.289062 -12.257812 3.671875 -12.421875 4.109375 -12.421875 L 4.5625 -12.421875 C 5 -12.421875 5.375 -12.253906 5.6875 -11.921875 C 6.007812 -11.597656 6.171875 -11.195312 6.171875 -10.71875 L 6.171875 0 L 4.203125 0 L 4.203125 -10.546875 L 2.6875 -10.546875 Z M 2.6875 0 "/></g></g></g><g fill="#0057ff" fill-opacity="0.302"><g transform="translate(132.014856, 31.665454)"><g><path d="M 2.234375 0 L 2.234375 -10.546875 L 0.265625 -10.546875 L 0.265625 -12.421875 L 6.171875 -12.421875 L 6.171875 -10.546875 L 4.203125 -10.546875 L 4.203125 0 Z M 2.234375 0 "/></g></g></g><g fill="#0057ff" fill-opacity="0.302"><g transform="translate(138.447052, 31.665454)"><g><path d="M 0.71875 -10.71875 C 0.71875 -11.207031 0.875 -11.613281 1.1875 -11.9375 C 1.5 -12.257812 1.878906 -12.421875 2.328125 -12.421875 L 4.5625 -12.421875 C 5 -12.421875 5.375 -12.253906 5.6875 -11.921875 C 6.007812 -11.597656 6.171875 -11.195312 6.171875 -10.71875 L 6.171875 -10.1875 L 4.203125 -9.203125 L 4.203125 -10.546875 L 2.6875 -10.546875 L 2.6875 -7.234375 L 6.171875 -9.03125 L 6.171875 -1.703125 C 6.171875 -1.234375 6.007812 -0.832031 5.6875 -0.5 C 5.375 -0.164062 5 0 4.5625 0 L 2.328125 0 C 1.878906 0 1.5 -0.160156 1.1875 -0.484375 C 0.875 -0.816406 0.71875 -1.222656 0.71875 -1.703125 L 0.71875 -2.859375 L 2.6875 -3.84375 L 2.6875 -1.875 L 4.203125 -1.875 L 4.203125 -5.8125 L 0.71875 -4.015625 Z M 0.71875 -10.71875 "/></g></g></g><g fill="#0057ff" fill-opacity="0.502"><g transform="translate(100.694171, 31.221549)"><g><path d="M 0.71875 -10.71875 C 0.71875 -11.207031 0.875 -11.613281 1.1875 -11.9375 C 1.5 -12.257812 1.878906 -12.421875 2.328125 -12.421875 L 4.5625 -12.421875 C 5 -12.421875 5.375 -12.253906 5.6875 -11.921875 C 6.007812 -11.597656 6.171875 -11.195312 6.171875 -10.71875 L 6.171875 -10.1875 L 4.203125 -9.203125 L 4.203125 -10.546875 L 2.6875 -10.546875 L 2.6875 -7.234375 L 6.171875 -9.03125 L 6.171875 -1.703125 C 6.171875 -1.234375 6.007812 -0.832031 5.6875 -0.5 C 5.375 -0.164062 5 0 4.5625 0 L 2.328125 0 C 1.878906 0 1.5 -0.160156 1.1875 -0.484375 C 0.875 -0.816406 0.71875 -1.222656 0.71875 -1.703125 L 0.71875 -2.859375 L 2.6875 -3.84375 L 2.6875 -1.875 L 4.203125 -1.875 L 4.203125 -5.8125 L 0.71875 -4.015625 Z M 0.71875 -10.71875 "/></g></g></g><g fill="#0057ff" fill-opacity="0.502"><g transform="translate(107.573048, 31.221549)"><g><path d="M 4.203125 -7.234375 L 4.203125 -10.546875 L 2.6875 -10.546875 L 2.6875 -6.4375 Z M 2.6875 0 L 0.71875 0 L 0.71875 -12.421875 L 4.5625 -12.421875 C 5 -12.421875 5.375 -12.253906 5.6875 -11.921875 C 6.007812 -11.597656 6.171875 -11.195312 6.171875 -10.71875 L 6.171875 -6.03125 L 2.6875 -4.234375 Z M 2.6875 0 "/></g></g></g><g fill="#0057ff" fill-opacity="0.502"><g transform="translate(114.273251, 31.221549)"><g><path d="M 5.1875 0 L 3.125 -4.640625 L 2.6875 -4.421875 L 2.6875 0 L 0.71875 0 L 0.71875 -12.421875 L 4.5625 -12.421875 C 5 -12.421875 5.375 -12.253906 5.6875 -11.921875 C 6.007812 -11.597656 6.171875 -11.195312 6.171875 -10.71875 L 6.171875 -6.203125 L 4.859375 -5.546875 L 7.328125 0 Z M 4.203125 -7.421875 L 4.203125 -10.546875 L 2.6875 -10.546875 L 2.6875 -6.609375 Z M 4.203125 -7.421875 "/></g></g></g><g fill="#0057ff" fill-opacity="0.502"><g transform="translate(121.152129, 31.221549)"><g><path d="M 0.71875 0 L 0.71875 -12.421875 L 2.6875 -12.421875 L 2.6875 0 Z M 0.71875 0 "/></g></g></g><g fill="#0057ff" fill-opacity="0.502"><g transform="translate(124.546902, 31.221549)"><g><path d="M 2.6875 0 L 0.71875 0 L 0.71875 -12.421875 L 2.6875 -12.421875 L 2.6875 -11.515625 C 2.75 -11.671875 2.84375 -11.8125 2.96875 -11.9375 C 3.289062 -12.257812 3.671875 -12.421875 4.109375 -12.421875 L 4.5625 -12.421875 C 5 -12.421875 5.375 -12.253906 5.6875 -11.921875 C 6.007812 -11.597656 6.171875 -11.195312 6.171875 -10.71875 L 6.171875 0 L 4.203125 0 L 4.203125 -10.546875 L 2.6875 -10.546875 Z M 2.6875 0 "/></g></g></g><g fill="#0057ff" fill-opacity="0.502"><g transform="translate(131.42578, 31.221549)"><g><path d="M 2.234375 0 L 2.234375 -10.546875 L 0.265625 -10.546875 L 0.265625 -12.421875 L 6.171875 -12.421875 L 6.171875 -10.546875 L 4.203125 -10.546875 L 4.203125 0 Z M 2.234375 0 "/></g></g></g><g fill="#0057ff" fill-opacity="0.502"><g transform="translate(137.857976, 31.221549)"><g><path d="M 0.71875 -10.71875 C 0.71875 -11.207031 0.875 -11.613281 1.1875 -11.9375 C 1.5 -12.257812 1.878906 -12.421875 2.328125 -12.421875 L 4.5625 -12.421875 C 5 -12.421875 5.375 -12.253906 5.6875 -11.921875 C 6.007812 -11.597656 6.171875 -11.195312 6.171875 -10.71875 L 6.171875 -10.1875 L 4.203125 -9.203125 L 4.203125 -10.546875 L 2.6875 -10.546875 L 2.6875 -7.234375 L 6.171875 -9.03125 L 6.171875 -1.703125 C 6.171875 -1.234375 6.007812 -0.832031 5.6875 -0.5 C 5.375 -0.164062 5 0 4.5625 0 L 2.328125 0 C 1.878906 0 1.5 -0.160156 1.1875 -0.484375 C 0.875 -0.816406 0.71875 -1.222656 0.71875 -1.703125 L 0.71875 -2.859375 L 2.6875 -3.84375 L 2.6875 -1.875 L 4.203125 -1.875 L 4.203125 -5.8125 L 0.71875 -4.015625 Z M 0.71875 -10.71875 "/></g></g></g><g fill="#ff1616" fill-opacity="1"><g transform="translate(100.105085, 30.777645)"><g><path d="M 0.71875 -10.71875 C 0.71875 -11.207031 0.875 -11.613281 1.1875 -11.9375 C 1.5 -12.257812 1.878906 -12.421875 2.328125 -12.421875 L 4.5625 -12.421875 C 5 -12.421875 5.375 -12.253906 5.6875 -11.921875 C 6.007812 -11.597656 6.171875 -11.195312 6.171875 -10.71875 L 6.171875 -10.1875 L 4.203125 -9.203125 L 4.203125 -10.546875 L 2.6875 -10.546875 L 2.6875 -7.234375 L 6.171875 -9.03125 L 6.171875 -1.703125 C 6.171875 -1.234375 6.007812 -0.832031 5.6875 -0.5 C 5.375 -0.164062 5 0 4.5625 0 L 2.328125 0 C 1.878906 0 1.5 -0.160156 1.1875 -0.484375 C 0.875 -0.816406 0.71875 -1.222656 0.71875 -1.703125 L 0.71875 -2.859375 L 2.6875 -3.84375 L 2.6875 -1.875 L 4.203125 -1.875 L 4.203125 -5.8125 L 0.71875 -4.015625 Z M 0.71875 -10.71875 "/></g></g></g><g fill="#ff1616" fill-opacity="1"><g transform="translate(106.983963, 30.777645)"><g><path d="M 4.203125 -7.234375 L 4.203125 -10.546875 L 2.6875 -10.546875 L 2.6875 -6.4375 Z M 2.6875 0 L 0.71875 0 L 0.71875 -12.421875 L 4.5625 -12.421875 C 5 -12.421875 5.375 -12.253906 5.6875 -11.921875 C 6.007812 -11.597656 6.171875 -11.195312 6.171875 -10.71875 L 6.171875 -6.03125 L 2.6875 -4.234375 Z M 2.6875 0 "/></g></g></g><g fill="#ff1616" fill-opacity="1"><g transform="translate(113.684166, 30.777645)"><g><path d="M 5.1875 0 L 3.125 -4.640625 L 2.6875 -4.421875 L 2.6875 0 L 0.71875 0 L 0.71875 -12.421875 L 4.5625 -12.421875 C 5 -12.421875 5.375 -12.253906 5.6875 -11.921875 C 6.007812 -11.597656 6.171875 -11.195312 6.171875 -10.71875 L 6.171875 -6.203125 L 4.859375 -5.546875 L 7.328125 0 Z M 4.203125 -7.421875 L 4.203125 -10.546875 L 2.6875 -10.546875 L 2.6875 -6.609375 Z M 4.203125 -7.421875 "/></g></g></g><g fill="#ff1616" fill-opacity="1"><g transform="translate(120.563043, 30.777645)"><g><path d="M 0.71875 0 L 0.71875 -12.421875 L 2.6875 -12.421875 L 2.6875 0 Z M 0.71875 0 "/></g></g></g><g fill="#ff1616" fill-opacity="1"><g transform="translate(123.957816, 30.777645)"><g><path d="M 2.6875 0 L 0.71875 0 L 0.71875 -12.421875 L 2.6875 -12.421875 L 2.6875 -11.515625 C 2.75 -11.671875 2.84375 -11.8125 2.96875 -11.9375 C 3.289062 -12.257812 3.671875 -12.421875 4.109375 -12.421875 L 4.5625 -12.421875 C 5 -12.421875 5.375 -12.253906 5.6875 -11.921875 C 6.007812 -11.597656 6.171875 -11.195312 6.171875 -10.71875 L 6.171875 0 L 4.203125 0 L 4.203125 -10.546875 L 2.6875 -10.546875 Z M 2.6875 0 "/></g></g></g><g fill="#ff1616" fill-opacity="1"><g transform="translate(130.836694, 30.777645)"><g><path d="M 2.234375 0 L 2.234375 -10.546875 L 0.265625 -10.546875 L 0.265625 -12.421875 L 6.171875 -12.421875 L 6.171875 -10.546875 L 4.203125 -10.546875 L 4.203125 0 Z M 2.234375 0 "/></g></g></g><g fill="#ff1616" fill-opacity="1"><g transform="translate(137.268891, 30.777645)"><g><path d="M 0.71875 -10.71875 C 0.71875 -11.207031 0.875 -11.613281 1.1875 -11.9375 C 1.5 -12.257812 1.878906 -12.421875 2.328125 -12.421875 L 4.5625 -12.421875 C 5 -12.421875 5.375 -12.253906 5.6875 -11.921875 C 6.007812 -11.597656 6.171875 -11.195312 6.171875 -10.71875 L 6.171875 -10.1875 L 4.203125 -9.203125 L 4.203125 -10.546875 L 2.6875 -10.546875 L 2.6875 -7.234375 L 6.171875 -9.03125 L 6.171875 -1.703125 C 6.171875 -1.234375 6.007812 -0.832031 5.6875 -0.5 C 5.375 -0.164062 5 0 4.5625 0 L 2.328125 0 C 1.878906 0 1.5 -0.160156 1.1875 -0.484375 C 0.875 -0.816406 0.71875 -1.222656 0.71875 -1.703125 L 0.71875 -2.859375 L 2.6875 -3.84375 L 2.6875 -1.875 L 4.203125 -1.875 L 4.203125 -5.8125 L 0.71875 -4.015625 Z M 0.71875 -10.71875 "/></g></g></g><g fill="#0057ff" fill-opacity="0.302"><g transform="translate(62.513858, 15.99832)"><g><path d="M 0.71875 2.5 L 0.71875 -12.515625 L 2.6875 -12.515625 L 2.6875 2.5 Z M 0.71875 2.5 "/></g></g></g><g fill="#0057ff" fill-opacity="0.502"><g transform="translate(61.924779, 15.554416)"><g><path d="M 0.71875 2.5 L 0.71875 -12.515625 L 2.6875 -12.515625 L 2.6875 2.5 Z M 0.71875 2.5 "/></g></g></g><g fill="#00c2cb" fill-opacity="1"><g transform="translate(61.335698, 15.110512)"><g><path d="M 0.71875 2.5 L 0.71875 -12.515625 L 2.6875 -12.515625 L 2.6875 2.5 Z M 0.71875 2.5 "/></g></g></g><g fill="#0057ff" fill-opacity="0.302"><g transform="translate(96.263861, 30.504899)"><g><path d="M 0.71875 2.5 L 0.71875 -12.515625 L 2.6875 -12.515625 L 2.6875 2.5 Z M 0.71875 2.5 "/></g></g></g><g fill="#0057ff" fill-opacity="0.502"><g transform="translate(95.674785, 30.060993)"><g><path d="M 0.71875 2.5 L 0.71875 -12.515625 L 2.6875 -12.515625 L 2.6875 2.5 Z M 0.71875 2.5 "/></g></g></g><g fill="#00c2cb" fill-opacity="1"><g transform="translate(95.085699, 29.617089)"><g><path d="M 0.71875 2.5 L 0.71875 -12.515625 L 2.6875 -12.515625 L 2.6875 2.5 Z M 0.71875 2.5 "/></g></g></g></svg>